<svg 
  xmlns="http://www.w3.org/2000/svg"
  xmlns:xlink="http://www.w3.org/1999/xlink"
>
  <symbol 
    id="logo"  x="0px" y="0px"
    width="54px" height="72px"
    >
    <path fill-rule="evenodd"  fill="rgb(246, 246, 246)"
    d="M29.714,52.981 C29.206,58.539 28.174,63.426 26.295,67.698 C25.672,69.114 24.539,70.465 24.016,72.000 C23.940,72.000 23.864,72.000 23.788,72.000 C23.788,71.622 23.788,71.245 23.788,70.868 C24.216,70.203 24.007,69.293 24.244,68.377 C25.372,64.020 25.457,58.207 23.560,54.566 C20.320,48.345 13.832,50.438 7.379,47.773 C4.851,46.730 2.994,44.583 1.681,42.339 C1.225,41.057 0.769,39.773 0.313,38.490 C-0.403,35.785 0.251,32.291 0.997,30.339 C4.104,22.208 11.869,18.630 21.281,23.094 C21.281,22.868 21.281,22.641 21.281,22.415 C20.474,21.319 20.736,19.682 20.369,18.113 C19.384,13.894 18.625,0.046 23.332,-0.000 C24.609,0.926 27.063,0.885 27.207,2.943 C26.831,3.348 26.809,3.512 26.751,4.302 C26.827,4.302 26.903,4.302 26.979,4.302 C26.979,4.226 26.979,4.151 26.979,4.075 C27.960,3.045 28.229,0.705 29.942,0.453 C31.310,1.673 33.625,1.916 34.044,4.075 C32.902,5.521 31.775,8.049 31.309,9.962 C31.461,9.962 31.613,9.962 31.765,9.962 C33.193,8.085 39.077,2.711 41.793,3.169 C42.597,4.461 43.427,5.738 43.844,7.472 C42.409,7.981 41.749,9.367 40.653,10.189 C36.654,13.188 33.422,17.563 30.853,21.962 C31.081,21.962 31.309,21.962 31.537,21.962 C33.106,20.742 39.510,20.151 42.249,20.830 C49.471,22.622 51.501,25.101 53.188,32.377 C53.423,33.388 53.732,35.769 53.416,37.132 C51.233,46.574 46.626,51.341 37.007,53.434 C34.436,53.993 31.873,53.097 29.714,52.981 Z"/>
  </symbol>
  <symbol id="twitter" x="0px" y="0px"
	 viewBox="0 0 512 512" style="enable-background:new 0 0 512 512;" xml:space="preserve">
 		<path d="M512,97.248c-19.04,8.352-39.328,13.888-60.48,16.576c21.76-12.992,38.368-33.408,46.176-58.016
			c-20.288,12.096-42.688,20.64-66.56,25.408C411.872,60.704,384.416,48,354.464,48c-58.112,0-104.896,47.168-104.896,104.992
			c0,8.32,0.704,16.32,2.432,23.936c-87.264-4.256-164.48-46.08-216.352-109.792c-9.056,15.712-14.368,33.696-14.368,53.056
			c0,36.352,18.72,68.576,46.624,87.232c-16.864-0.32-33.408-5.216-47.424-12.928c0,0.32,0,0.736,0,1.152
			c0,51.008,36.384,93.376,84.096,103.136c-8.544,2.336-17.856,3.456-27.52,3.456c-6.72,0-13.504-0.384-19.872-1.792
			c13.6,41.568,52.192,72.128,98.08,73.12c-35.712,27.936-81.056,44.768-130.144,44.768c-8.608,0-16.864-0.384-25.12-1.44
			C46.496,446.88,101.6,464,161.024,464c193.152,0,298.752-160,298.752-298.688c0-4.64-0.16-9.12-0.384-13.568
			C480.224,136.96,497.728,118.496,512,97.248z"/>
 
  </symbol>

  <symbol id="facebook" x="0px" y="0px"
    viewBox="0 0 512 512" style="enable-background:new 0 0 512 512;" xml:space="preserve">
    <path  
    d="M288,176v-64c0-17.664,14.336-32,32-32h32V0h-64c-53.024,0-96,42.976-96,96v80h-64v80h64v256h96V256h64l32-80H288z"/>
  </symbol>

  <symbol id="instagram" x="0px" y="0px"
    viewBox="0 0 512 512" style="enable-background:new 0 0 512 512;" xml:space="preserve">
    <g>
      <path d="M352,0H160C71.648,0,0,71.648,0,160v192c0,88.352,71.648,160,160,160h192c88.352,0,160-71.648,160-160V160
        C512,71.648,440.352,0,352,0z M464,352c0,61.76-50.24,112-112,112H160c-61.76,0-112-50.24-112-112V160C48,98.24,98.24,48,160,48
        h192c61.76,0,112,50.24,112,112V352z"/>
    </g>
    <g>
		  <path d="M256,128c-70.688,0-128,57.312-128,128s57.312,128,128,128s128-57.312,128-128S326.688,128,256,128z M256,336
			c-44.096,0-80-35.904-80-80c0-44.128,35.904-80,80-80s80,35.872,80,80C336,300.096,300.096,336,256,336z"/>
	  </g>
    <g>
		  <circle cx="393.6" cy="118.4" r="17.056"/>
	  </g>
  </symbol> 

  <symbol>
    <g id="google-plus" x="0px" y="0px"
	      width="604.35px" height="604.35px" viewBox="0 0 604.35 604.35" 
	      xml:space="preserve" >
      <path d="M516.375,255v-76.5h-51V255h-76.5v51h76.5v76.5h51V306h76.5v-51H516.375z M320.025,341.7l-28.051-20.4
        c-10.2-7.649-20.399-17.85-20.399-35.7s12.75-33.15,25.5-40.8c33.15-25.5,66.3-53.55,66.3-109.65c0-53.55-33.15-84.15-51-99.45
        h43.35l30.6-35.7h-158.1c-112.2,0-168.3,71.4-168.3,147.9c0,58.65,45.9,122.4,127.5,122.4h20.4c-2.55,7.65-10.2,20.4-10.2,33.15
        c0,25.5,10.2,35.7,22.95,51c-35.7,2.55-102,10.2-150.45,40.8c-45.9,28.05-58.65,66.3-58.65,94.35
        c0,58.65,53.55,114.75,168.3,114.75c137.7,0,204.001-76.5,204.001-150.449C383.775,400.35,355.725,372.3,320.025,341.7z
        M126.225,109.65c0-56.1,33.15-81.6,68.85-81.6c66.3,0,102,89.25,102,140.25c0,66.3-53.55,79.05-73.95,79.05
        C159.375,247.35,126.225,168.3,126.225,109.65z M218.024,568.65c-84.15,0-137.7-38.25-137.7-94.351c0-56.1,51-73.95,66.3-81.6
        c33.15-10.2,76.5-12.75,84.15-12.75s12.75,0,17.85,0c61.2,43.35,86.7,61.2,86.7,102C335.324,530.4,286.875,568.65,218.024,568.65z
        "/>
	  </g>
  </symbol>

  <symbol id="linkedin"  viewBox="0 0 24 24" >
    <path d="m23.994 24v-.001h.006v-8.802c0-4.306-.927-7.623-5.961-7.623-2.42 0-4.044 1.328-4.707 2.587h-.07v-2.185h-4.773v16.023h4.97v-7.934c0-2.089.396-4.109 2.983-4.109 2.549 0 2.587 2.384 2.587 4.243v7.801z"/>
    <path d="m.396 7.977h4.976v16.023h-4.976z"/>
    <path d="m2.882 0c-1.591 0-2.882 1.291-2.882 2.882s1.291 2.909 2.882 2.909 2.882-1.318 2.882-2.909c-.001-1.591-1.292-2.882-2.882-2.882z"/>
  </symbol>

  <symbol id="behance"  x="0px" y="0px"
	 viewBox="0 0 511.958 511.958" xml:space="preserve">
    <g>
			<path d="M210.624,240.619c10.624-5.344,18.656-11.296,24.16-17.728c9.792-11.584,14.624-26.944,14.624-45.984
				c0-18.528-4.832-34.368-14.496-47.648c-16.128-21.632-43.424-32.704-82.016-33.28H0v312.096h142.56
				c16.064,0,30.944-1.376,44.704-4.192c13.76-2.848,25.664-8.064,35.744-15.68c8.96-6.624,16.448-14.848,22.4-24.544
				c9.408-14.656,14.112-31.264,14.112-49.76c0-17.92-4.128-33.184-12.32-45.728C238.912,255.627,226.752,246.443,210.624,240.619z
				 M63.072,150.187h68.864c15.136,0,27.616,1.632,37.408,4.864c11.328,4.704,16.992,14.272,16.992,28.864
				c0,13.088-4.32,22.24-12.864,27.392c-8.608,5.152-19.776,7.744-33.472,7.744H63.072V150.187z M171.968,348.427
				c-7.616,3.68-18.336,5.504-32.064,5.504H63.072v-83.232h77.888c13.568,0.096,24.128,1.888,31.68,5.248
				c13.44,6.08,20.128,17.216,20.128,33.504C192.768,328.651,185.856,341.579,171.968,348.427z"/>
			<rect x="327.168" y="110.539" width="135.584" height="38.848"/>
			<path d="M509.856,263.851c-2.816-18.08-9.024-33.984-18.688-47.712c-10.592-15.552-24.032-26.944-40.384-34.144
				c-16.288-7.232-34.624-10.848-55.04-10.816c-34.272,0-62.112,10.72-83.648,32c-21.472,21.344-32.224,52.032-32.224,92.032
				c0,42.656,11.872,73.472,35.744,92.384c23.776,18.944,51.232,28.384,82.4,28.384c37.728,0,67.072-11.232,88.032-33.632
				c13.408-14.144,20.992-28.064,22.656-41.728H446.24c-3.616,6.752-7.808,12.032-12.608,15.872
				c-8.704,7.04-20.032,10.56-33.92,10.56c-13.216,0-24.416-2.912-33.76-8.704c-15.424-9.28-23.488-25.536-24.512-48.672h170.464
				C512.16,289.739,511.52,274.411,509.856,263.851z M342.976,269.835c2.24-15.008,7.68-26.912,16.32-35.712
				c8.64-8.768,20.864-13.184,36.512-13.216c14.432,0,26.496,4.128,36.32,12.416c9.696,8.352,15.168,20.48,16.288,36.512H342.976z"
				/>
		</g>
  </symbol>

  <symbol id="location" x="0px" y="0px"
    viewBox="0 0 512 512" style="enable-background:new 0 0 512 512;" xml:space="preserve">
    <g>
      <path d="M256,0C161.896,0,85.333,76.563,85.333,170.667c0,28.25,7.063,56.26,20.49,81.104L246.667,506.5
        c1.875,3.396,5.448,5.5,9.333,5.5s7.458-2.104,9.333-5.5l140.896-254.813c13.375-24.76,20.438-52.771,20.438-81.021
        C426.667,76.563,350.104,0,256,0z M256,256c-47.052,0-85.333-38.281-85.333-85.333c0-47.052,38.281-85.333,85.333-85.333
        s85.333,38.281,85.333,85.333C341.333,217.719,303.052,256,256,256z"/>
    </g>
  </symbol>
  <symbol id="phone" x="0px" y="0px"
    viewBox="0 0 512 512" style="enable-background:new 0 0 512 512;" xml:space="preserve">
    <g>
      <path d="M499.66,376.96l-71.68-71.68c-25.6-25.6-69.12-15.359-79.36,17.92c-7.68,23.041-33.28,35.841-56.32,30.72
        c-51.2-12.8-120.32-79.36-133.12-133.12c-7.68-23.041,7.68-48.641,30.72-56.32c33.28-10.24,43.52-53.76,17.92-79.36l-71.68-71.68
        c-20.48-17.92-51.2-17.92-69.12,0l-48.64,48.64c-48.64,51.2,5.12,186.88,125.44,307.2c120.32,120.32,256,176.641,307.2,125.44
        l48.64-48.64C517.581,425.6,517.581,394.88,499.66,376.96z"/>
    </g>
  </symbol>
  <symbol id="mail" x="0px" y="0px"
    viewBox="0 0 512 512" style="enable-background:new 0 0 512 512;" xml:space="preserve">
    <g>
      <g>
        <polygon points="339.392,258.624 512,367.744 512,144.896 		"/>
      </g>
    </g>
    <g>
      <g>
        <polygon points="0,144.896 0,367.744 172.608,258.624 		"/>
      </g>
    </g>
    <g>
      <g>
        <path d="M480,80H32C16.032,80,3.36,91.904,0.96,107.232L256,275.264l255.04-168.032C508.64,91.904,495.968,80,480,80z"/>
      </g>
    </g>
    <g>
      <g>
        <path d="M310.08,277.952l-45.28,29.824c-2.688,1.76-5.728,2.624-8.8,2.624c-3.072,0-6.112-0.864-8.8-2.624l-45.28-29.856
          L1.024,404.992C3.488,420.192,16.096,432,32,432h448c15.904,0,28.512-11.808,30.976-27.008L310.08,277.952z"/>
      </g>
    </g>
  </symbol>
   <symbol id="clock" x="0px" y="0px"
    viewBox="0 0 512 512" style="enable-background:new 0 0 512 512;" xml:space="preserve">
    <path d="m256 0c-141.164062 0-256 114.835938-256 256s114.835938 256 256 256 256-114.835938 256-256-114.835938-256-256-256zm121.75 388.414062c-4.160156 4.160157-9.621094 6.253907-15.082031 6.253907-5.460938 0-10.925781-2.09375-15.082031-6.253907l-106.667969-106.664062c-4.011719-3.988281-6.25-9.410156-6.25-15.082031v-138.667969c0-11.796875 9.554687-21.332031 21.332031-21.332031s21.332031 9.535156 21.332031 21.332031v129.835938l100.417969 100.414062c8.339844 8.34375 8.339844 21.824219 0 30.164062zm0 0"/>
  </symbol>


</svg>